# xmcd CD database file
#
# Track frame offsets:
#	183
#	20370
#	37913
#	62290
#	88858
#	117408
#	134583
#	161320
#	184783
#	194000
#
# Disc length: 3286 seconds
#
# Revision: 0
# Processed by: cddbd v1.5.1PL0 Copyright (c) Steve Scherf et al.
# Submitted via: CDex 1.51
#
DISCID=810cd40a
DTITLE=Patrick Pillon - Exode
DYEAR=1900
DGENRE=New Age
TTITLE0=Les Bateliers
TTITLE1=Douce Nuit
TTITLE2=Cette Année Là...
TTITLE3=Les Vieux Amants
TTITLE4=Ballade
TTITLE5=Sans Titre
TTITLE6=Exintro
TTITLE7=Intermède
TTITLE8=Arizona
TTITLE9=Exode
EXTD=
EXTT0=
EXTT1=
EXTT2=
EXTT3=
EXTT4=
EXTT5=
EXTT6=
EXTT7=
EXTT8=
EXTT9=
PLAYORDER=
